<svg id="Layer_1" data-name="Layer 1" xmlns="http://www.w3.org/2000/svg" viewBox="0 0 347.87 124.26"><defs><style>.cls-1{font-size:13.97px;font-family:AkzidenzGroteskBQ-Ext, Akzidenz-Grotesk BQ Extended;letter-spacing:-0.17em;}.cls-1,.cls-5{fill:#4e2a7c;}.cls-2{letter-spacing:-0.17em;}.cls-3{letter-spacing:-0.05em;}.cls-4{letter-spacing:-0.12em;}.cls-6{fill:#fff;}.cls-7{fill:none;}</style></defs><text class="cls-1" transform="translate(214.29 105.5)">T<tspan class="cls-2" x="7.52" y="0">A</tspan><tspan class="cls-3" x="16.8" y="0">T</tspan><tspan class="cls-4" x="25.94" y="0">T</tspan><tspan class="cls-3" x="34.17" y="0">OO</tspan></text><path class="cls-5" d="M110.5,28V47.78h0V28ZM99.4,42.17l-.53,0c.41,0,.83,0,1.25,0Zm-2.72.2-.78.11L97,42.34Zm-2.7.49h0l-.41.1-.41.11-.46.13L93.6,43l1-.23ZM80.66,67.75c0,.14,0,.28.08.42s.07.28.11.41C80.78,68.31,80.72,68,80.66,67.75Zm-.54-6.14v.55c0-.35,0-.69,0-1C80.13,61.29,80.12,61.45,80.12,61.61Zm57-18.68v8.7s0,0,0,0V42.93Zm0,17.31V81.39h0V60.24l.06-.17C137.15,60.13,137.13,60.19,137.11,60.24ZM149.8,42.16c0,.1,0,.2,0,.3a2,2,0,0,1,0-.24.13.13,0,0,1,0-.06Zm18.6,0-.3,0h.3ZM158.87,44c.59-.25,1.19-.47,1.81-.67A18.63,18.63,0,0,0,158.87,44Zm-9.46,9.21q-.19.4-.36.84c.12-.29.24-.57.37-.84s.2-.43.31-.64C149.62,52.81,149.51,53,149.41,53.24Zm-1.21,3.55a3.55,3.55,0,0,0-.09.47c0-.16.07-.32.1-.47s.11-.47.17-.7ZM190.4,43V95.65h0V43h0Zm11.95,4.11a9.53,9.53,0,0,1,1.13-1.45A7,7,0,0,0,202.35,47.11Zm62-4.54v10L252.66,65.14l-3.48,3.73,3.49-3.73,11.74-12.57v-10ZM252.18,71.28,252,71.1l.22.19L261,78.41h0ZM264.4,42.57v10L252.66,65.14l-3.48,3.73,3.49-3.73,11.74-12.57v-10ZM252.18,71.28,252,71.1l.22.19L261,78.41h0ZM190.4,43V95.65h0V43h0Zm11.95,4.11a9.53,9.53,0,0,1,1.13-1.45A7,7,0,0,0,202.35,47.11Zm-33.95-5-.3,0h.3ZM158.87,44c.59-.25,1.19-.47,1.81-.67A18.63,18.63,0,0,0,158.87,44Zm-9.46,9.21q-.19.4-.36.84c.12-.29.24-.57.37-.84s.2-.43.31-.64C149.62,52.81,149.51,53,149.41,53.24Zm-1.21,3.55a3.55,3.55,0,0,0-.09.47c0-.16.07-.32.1-.47s.11-.47.17-.7ZM137.11,42.93v8.7s0,0,0,0V42.93Zm0,17.31V81.39h0V60.24l.06-.17C137.15,60.13,137.13,60.19,137.11,60.24ZM149.8,42.16c0,.1,0,.2,0,.3a2,2,0,0,1,0-.24.13.13,0,0,1,0-.06ZM110.5,28V47.78h0V28ZM99.4,42.17l-.53,0c.41,0,.83,0,1.25,0Zm-2.72.2-.78.11L97,42.34Zm-2.7.49h0l-.41.1-.41.11-.46.13L93.6,43l1-.23ZM80.66,67.75c0,.14,0,.28.08.42s.07.28.11.41C80.78,68.31,80.72,68,80.66,67.75Zm-.54-6.14v.55c0-.35,0-.69,0-1C80.13,61.29,80.12,61.45,80.12,61.61ZM110.5,28V47.78h0V28ZM99.4,42.17l-.53,0c.41,0,.83,0,1.25,0Zm-2.72.2-.78.11L97,42.34Zm-2.7.49h0l-.41.1-.41.11-.46.13L93.6,43l1-.23ZM80.66,67.75c0,.14,0,.28.08.42s.07.28.11.41C80.78,68.31,80.72,68,80.66,67.75Zm-.54-6.14v.55c0-.35,0-.69,0-1C80.13,61.29,80.12,61.45,80.12,61.61Zm57-18.68v8.7s0,0,0,0V42.93Zm0,17.31V81.39h0V60.24l.06-.17C137.15,60.13,137.13,60.19,137.11,60.24ZM149.8,42.16c0,.1,0,.2,0,.3a2,2,0,0,1,0-.24.13.13,0,0,1,0-.06Zm18.6,0-.3,0h.3ZM158.87,44c.59-.25,1.19-.47,1.81-.67A18.63,18.63,0,0,0,158.87,44Zm-9.46,9.21q-.19.4-.36.84c.12-.29.24-.57.37-.84s.2-.43.31-.64C149.62,52.81,149.51,53,149.41,53.24Zm-1.21,3.55a3.55,3.55,0,0,0-.09.47c0-.16.07-.32.1-.47s.11-.47.17-.7ZM190.4,43V95.65h0V43h0Zm11.95,4.11a9.53,9.53,0,0,1,1.13-1.45A7,7,0,0,0,202.35,47.11Zm62-4.54v10L252.66,65.14l-3.48,3.73,3.49-3.73,11.74-12.57v-10ZM252.18,71.28,252,71.1l.22.19L261,78.41h0ZM264.4,42.57v10L252.66,65.14l-3.48,3.73,3.49-3.73,11.74-12.57v-10ZM252.18,71.28,252,71.1l.22.19L261,78.41h0ZM190.4,43V95.65h0V43h0Zm11.95,4.11a9.53,9.53,0,0,1,1.13-1.45A7,7,0,0,0,202.35,47.11Zm-33.95-5-.3,0h.3ZM158.87,44c.59-.25,1.19-.47,1.81-.67A18.63,18.63,0,0,0,158.87,44Zm-9.46,9.21q-.19.4-.36.84c.12-.29.24-.57.37-.84s.2-.43.31-.64C149.62,52.81,149.51,53,149.41,53.24Zm-1.21,3.55a3.55,3.55,0,0,0-.09.47c0-.16.07-.32.1-.47s.11-.47.17-.7ZM137.11,42.93v8.7s0,0,0,0V42.93Zm0,17.31V81.39h0V60.24l.06-.17C137.15,60.13,137.13,60.19,137.11,60.24ZM149.8,42.16c0,.1,0,.2,0,.3a2,2,0,0,1,0-.24.13.13,0,0,1,0-.06ZM110.5,28V47.78h0V28ZM99.4,42.17l-.53,0c.41,0,.83,0,1.25,0Zm-2.72.2-.78.11L97,42.34Zm-2.7.49h0l-.41.1-.41.11-.46.13L93.6,43l1-.23ZM80.66,67.75c0,.14,0,.28.08.42s.07.28.11.41C80.78,68.31,80.72,68,80.66,67.75Zm-.54-6.14v.55c0-.35,0-.69,0-1C80.13,61.29,80.12,61.45,80.12,61.61ZM110.5,28V47.78h0V28ZM99.4,42.17l-.53,0c.41,0,.83,0,1.25,0Zm-2.72.2-.78.11L97,42.34Zm-2.7.49h0l-.41.1-.41.11-.46.13L93.6,43l1-.23ZM80.66,67.75c0,.14,0,.28.08.42s.07.28.11.41C80.78,68.31,80.72,68,80.66,67.75Zm-.54-6.14v.55c0-.35,0-.69,0-1C80.13,61.29,80.12,61.45,80.12,61.61Zm57-18.68v8.7s0,0,0,0V42.93Zm0,17.31V81.39h0V60.24l.06-.17C137.15,60.13,137.13,60.19,137.11,60.24ZM149.8,42.16c0,.1,0,.2,0,.3a2,2,0,0,1,0-.24.13.13,0,0,1,0-.06Zm18.6,0-.3,0h.3ZM158.87,44c.59-.25,1.19-.47,1.81-.67A18.63,18.63,0,0,0,158.87,44Zm-9.46,9.21q-.19.4-.36.84c.12-.29.24-.57.37-.84s.2-.43.31-.64C149.62,52.81,149.51,53,149.41,53.24Zm-1.21,3.55a3.55,3.55,0,0,0-.09.47c0-.16.07-.32.1-.47s.11-.47.17-.7ZM190.4,43V95.65h0V43h0Zm11.95,4.11a9.53,9.53,0,0,1,1.13-1.45A7,7,0,0,0,202.35,47.11Zm62-4.54v10L252.66,65.14l-3.48,3.73,3.49-3.73,11.74-12.57v-10ZM252.18,71.28,252,71.1l.22.19L261,78.41h0ZM264.4,42.57v10L252.66,65.14l-3.48,3.73,3.49-3.73,11.74-12.57v-10ZM252.18,71.28,252,71.1l.22.19L261,78.41h0ZM190.4,43V95.65h0V43h0Zm11.95,4.11a9.53,9.53,0,0,1,1.13-1.45A7,7,0,0,0,202.35,47.11Zm-33.95-5-.3,0h.3ZM158.87,44c.59-.25,1.19-.47,1.81-.67A18.63,18.63,0,0,0,158.87,44Zm-9.46,9.21q-.19.4-.36.84c.12-.29.24-.57.37-.84s.2-.43.31-.64C149.62,52.81,149.51,53,149.41,53.24Zm-1.21,3.55a3.55,3.55,0,0,0-.09.47c0-.16.07-.32.1-.47s.11-.47.17-.7ZM137.11,42.93v8.7s0,0,0,0V42.93Zm0,17.31V81.39h0V60.24l.06-.17C137.15,60.13,137.13,60.19,137.11,60.24ZM149.8,42.16c0,.1,0,.2,0,.3a2,2,0,0,1,0-.24.13.13,0,0,1,0-.06ZM110.5,28V47.78h0V28ZM99.4,42.17l-.53,0c.41,0,.83,0,1.25,0Zm-2.72.2-.78.11L97,42.34Zm-2.7.49h0l-.41.1-.41.11-.46.13L93.6,43l1-.23ZM80.66,67.75c0,.14,0,.28.08.42s.07.28.11.41C80.78,68.31,80.72,68,80.66,67.75Zm-.54-6.14v.55c0-.35,0-.69,0-1C80.13,61.29,80.12,61.45,80.12,61.61ZM110.5,28V47.78h0V28ZM99.4,42.17l-.53,0c.41,0,.83,0,1.25,0Zm-2.72.2-.78.11L97,42.34Zm-2.7.49h0l-.41.1-.41.11-.46.13L93.6,43l1-.23ZM80.66,67.75c0,.14,0,.28.08.42s.07.28.11.41C80.78,68.31,80.72,68,80.66,67.75Zm-.54-6.14v.55c0-.35,0-.69,0-1C80.13,61.29,80.12,61.45,80.12,61.61Zm57-18.68v8.7s0,0,0,0V42.93Zm0,17.31V81.39h0V60.24l.06-.17C137.15,60.13,137.13,60.19,137.11,60.24ZM149.8,42.16c0,.1,0,.2,0,.3a2,2,0,0,1,0-.24.13.13,0,0,1,0-.06Zm18.6,0-.3,0h.3ZM158.87,44c.59-.25,1.19-.47,1.81-.67A18.63,18.63,0,0,0,158.87,44Zm-9.46,9.21q-.19.4-.36.84c.12-.29.24-.57.37-.84s.2-.43.31-.64C149.62,52.81,149.51,53,149.41,53.24Zm-1.21,3.55a3.55,3.55,0,0,0-.09.47c0-.16.07-.32.1-.47s.11-.47.17-.7ZM190.4,43V95.65h0V43h0Zm11.95,4.11a9.53,9.53,0,0,1,1.13-1.45A7,7,0,0,0,202.35,47.11Zm62-4.54v10L252.66,65.14l-3.48,3.73,3.49-3.73,11.74-12.57v-10ZM252.18,71.28,252,71.1l.22.19L261,78.41h0ZM264.4,42.57v10L252.66,65.14l-3.48,3.73,3.49-3.73,11.74-12.57v-10ZM252.18,71.28,252,71.1l.22.19L261,78.41h0ZM190.4,43V95.65h0V43h0Zm11.95,4.11a9.53,9.53,0,0,1,1.13-1.45A7,7,0,0,0,202.35,47.11Zm-33.95-5-.3,0h.3ZM158.87,44c.59-.25,1.19-.47,1.81-.67A18.63,18.63,0,0,0,158.87,44Zm-9.46,9.21q-.19.4-.36.84c.12-.29.24-.57.37-.84s.2-.43.31-.64C149.62,52.81,149.51,53,149.41,53.24Zm-1.21,3.55a3.55,3.55,0,0,0-.09.47c0-.16.07-.32.1-.47s.11-.47.17-.7ZM137.11,42.93v8.7s0,0,0,0V42.93Zm0,17.31V81.39h0V60.24l.06-.17C137.15,60.13,137.13,60.19,137.11,60.24ZM149.8,42.16c0,.1,0,.2,0,.3a2,2,0,0,1,0-.24.13.13,0,0,1,0-.06ZM110.5,28V47.78h0V28ZM99.4,42.17l-.53,0c.41,0,.83,0,1.25,0Zm-2.72.2-.78.11L97,42.34Zm-2.7.49h0l-.41.1-.41.11-.46.13L93.6,43l1-.23ZM80.66,67.75c0,.14,0,.28.08.42s.07.28.11.41C80.78,68.31,80.72,68,80.66,67.75Zm-.54-6.14v.55c0-.35,0-.69,0-1C80.13,61.29,80.12,61.45,80.12,61.61ZM110.5,28V47.78h0V28ZM99.4,42.17l-.53,0c.41,0,.83,0,1.25,0Zm-2.72.2-.78.11L97,42.34Zm-2.7.49h0l-.41.1-.41.11-.46.13L93.6,43l1-.23ZM80.66,67.75c0,.14,0,.28.08.42s.07.28.11.41C80.78,68.31,80.72,68,80.66,67.75Zm-.54-6.14v.55c0-.35,0-.69,0-1C80.13,61.29,80.12,61.45,80.12,61.61Zm57-18.68v8.7s0,0,0,0V42.93Zm0,17.31V81.39h0V60.24l.06-.17C137.15,60.13,137.13,60.19,137.11,60.24ZM149.8,42.16c0,.1,0,.2,0,.3a2,2,0,0,1,0-.24.13.13,0,0,1,0-.06Zm18.6,0-.3,0h.3ZM158.87,44c.59-.25,1.19-.47,1.81-.67A18.63,18.63,0,0,0,158.87,44Zm-9.46,9.21q-.19.4-.36.84c.12-.29.24-.57.37-.84s.2-.43.31-.64C149.62,52.81,149.51,53,149.41,53.24Zm-1.21,3.55a3.55,3.55,0,0,0-.09.47c0-.16.07-.32.1-.47s.11-.47.17-.7ZM190.4,43V95.65h0V43h0Zm11.95,4.11a9.53,9.53,0,0,1,1.13-1.45A7,7,0,0,0,202.35,47.11Zm62-4.54v10L252.66,65.14l-3.48,3.73,3.49-3.73,11.74-12.57v-10ZM252.18,71.28,252,71.1l.22.19L261,78.41h0ZM264.4,42.57v10L252.66,65.14l-3.48,3.73,3.49-3.73,11.74-12.57v-10ZM252.18,71.28,252,71.1l.22.19L261,78.41h0ZM190.4,43V95.65h0V43h0Zm11.95,4.11a9.53,9.53,0,0,1,1.13-1.45A7,7,0,0,0,202.35,47.11Zm-33.95-5-.3,0h.3ZM158.87,44c.59-.25,1.19-.47,1.81-.67A18.63,18.63,0,0,0,158.87,44Zm-9.46,9.21q-.19.4-.36.84c.12-.29.24-.57.37-.84s.2-.43.31-.64C149.62,52.81,149.51,53,149.41,53.24Zm-1.21,3.55a3.55,3.55,0,0,0-.09.47c0-.16.07-.32.1-.47s.11-.47.17-.7ZM137.11,42.93v8.7s0,0,0,0V42.93Zm0,17.31V81.39h0V60.24l.06-.17C137.15,60.13,137.13,60.19,137.11,60.24ZM149.8,42.16c0,.1,0,.2,0,.3a2,2,0,0,1,0-.24.13.13,0,0,1,0-.06ZM110.5,28V47.78h0V28ZM99.4,42.17l-.53,0c.41,0,.83,0,1.25,0Zm-2.72.2-.78.11L97,42.34Zm-2.7.49h0l-.41.1-.41.11-.46.13L93.6,43l1-.23ZM80.66,67.75c0,.14,0,.28.08.42s.07.28.11.41C80.78,68.31,80.72,68,80.66,67.75Zm-.54-6.14v.55c0-.35,0-.69,0-1C80.13,61.29,80.12,61.45,80.12,61.61ZM110.5,28V47.78h0V28ZM99.4,42.17l-.53,0c.41,0,.83,0,1.25,0Zm-2.72.2-.78.11L97,42.34Zm-2.7.49h0l-.41.1-.41.11-.46.13L93.6,43l1-.23ZM80.66,67.75c0,.14,0,.28.08.42s.07.28.11.41C80.78,68.31,80.72,68,80.66,67.75Zm-.54-6.14v.55c0-.35,0-.69,0-1C80.13,61.29,80.12,61.45,80.12,61.61Zm57-18.68v8.7s0,0,0,0V42.93Zm0,17.31V81.39h0V60.24l.06-.17C137.15,60.13,137.13,60.19,137.11,60.24ZM149.8,42.16c0,.1,0,.2,0,.3a2,2,0,0,1,0-.24.13.13,0,0,1,0-.06Zm18.6,0-.3,0h.3ZM158.87,44c.59-.25,1.19-.47,1.81-.67A18.63,18.63,0,0,0,158.87,44Zm-9.46,9.21q-.19.4-.36.84c.12-.29.24-.57.37-.84s.2-.43.31-.64C149.62,52.81,149.51,53,149.41,53.24Zm-1.21,3.55a3.55,3.55,0,0,0-.09.47c0-.16.07-.32.1-.47s.11-.47.17-.7ZM190.4,43V95.65h0V43h0Zm11.95,4.11a9.53,9.53,0,0,1,1.13-1.45A7,7,0,0,0,202.35,47.11Zm62-4.54v10L252.66,65.14l-3.48,3.73,3.49-3.73,11.74-12.57v-10ZM252.18,71.28,252,71.1l.22.19L261,78.41h0ZM264.4,42.57v10L252.66,65.14l-3.48,3.73,3.49-3.73,11.74-12.57v-10ZM252.18,71.28,252,71.1l.22.19L261,78.41h0ZM190.4,43V95.65h0V43h0Zm11.95,4.11a9.53,9.53,0,0,1,1.13-1.45A7,7,0,0,0,202.35,47.11Zm-33.95-5-.3,0h.3ZM158.87,44c.59-.25,1.19-.47,1.81-.67A18.63,18.63,0,0,0,158.87,44Zm-9.46,9.21q-.19.4-.36.84c.12-.29.24-.57.37-.84s.2-.43.31-.64C149.62,52.81,149.51,53,149.41,53.24Zm-1.21,3.55a3.55,3.55,0,0,0-.09.47c0-.16.07-.32.1-.47s.11-.47.17-.7ZM137.11,42.93v8.7s0,0,0,0V42.93Zm0,17.31V81.39h0V60.24l.06-.17C137.15,60.13,137.13,60.19,137.11,60.24ZM149.8,42.16c0,.1,0,.2,0,.3a2,2,0,0,1,0-.24.13.13,0,0,1,0-.06ZM110.5,28V47.78h0V28ZM99.4,42.17l-.53,0c.41,0,.83,0,1.25,0Zm-2.72.2-.78.11L97,42.34Zm-2.7.49h0l-.41.1-.41.11-.46.13L93.6,43l1-.23ZM80.66,67.75c0,.14,0,.28.08.42s.07.28.11.41C80.78,68.31,80.72,68,80.66,67.75Zm-.54-6.14v.55c0-.35,0-.69,0-1C80.13,61.29,80.12,61.45,80.12,61.61ZM110.5,28V47.78h0V28ZM99.4,42.17l-.53,0c.41,0,.83,0,1.25,0Zm-2.72.2-.78.11L97,42.34Zm-2.7.49h0l-.41.1-.41.11-.46.13L93.6,43l1-.23ZM80.66,67.75c0,.14,0,.28.08.42s.07.28.11.41C80.78,68.31,80.72,68,80.66,67.75Zm-.54-6.14v.55c0-.35,0-.69,0-1C80.13,61.29,80.12,61.45,80.12,61.61Zm57-18.68v8.7s0,0,0,0V42.93Zm0,17.31V81.39h0V60.24l.06-.17C137.15,60.13,137.13,60.19,137.11,60.24ZM149.8,42.16c0,.1,0,.2,0,.3a2,2,0,0,1,0-.24.13.13,0,0,1,0-.06Zm18.6,0-.3,0h.3ZM158.87,44c.59-.25,1.19-.47,1.81-.67A18.63,18.63,0,0,0,158.87,44Zm-9.46,9.21q-.19.4-.36.84c.12-.29.24-.57.37-.84s.2-.43.31-.64C149.62,52.81,149.51,53,149.41,53.24Zm-1.21,3.55a3.55,3.55,0,0,0-.09.47c0-.16.07-.32.1-.47s.11-.47.17-.7ZM190.4,43V95.65h0V43h0Zm11.95,4.11a9.53,9.53,0,0,1,1.13-1.45A7,7,0,0,0,202.35,47.11Zm62-4.54v10L252.66,65.14l-3.48,3.73,3.49-3.73,11.74-12.57v-10ZM252.18,71.28,252,71.1l.22.19L261,78.41h0ZM264.4,42.57v10L252.66,65.14l-3.48,3.73,3.49-3.73,11.74-12.57v-10ZM252.18,71.28,252,71.1l.22.19L261,78.41h0ZM190.4,43V95.65h0V43h0Zm11.95,4.11a9.53,9.53,0,0,1,1.13-1.45A7,7,0,0,0,202.35,47.11Zm-33.95-5-.3,0h.3ZM158.87,44c.59-.25,1.19-.47,1.81-.67A18.63,18.63,0,0,0,158.87,44Zm-9.46,9.21q-.19.4-.36.84c.12-.29.24-.57.37-.84s.2-.43.31-.64C149.62,52.81,149.51,53,149.41,53.24Zm-1.21,3.55a3.55,3.55,0,0,0-.09.47c0-.16.07-.32.1-.47s.11-.47.17-.7ZM137.11,42.93v8.7s0,0,0,0V42.93Zm0,17.31V81.39h0V60.24l.06-.17C137.15,60.13,137.13,60.19,137.11,60.24ZM149.8,42.16c0,.1,0,.2,0,.3a2,2,0,0,1,0-.24.13.13,0,0,1,0-.06ZM110.5,28V47.78h0V28ZM99.4,42.17l-.53,0c.41,0,.83,0,1.25,0Zm-2.72.2-.78.11L97,42.34Zm-2.7.49h0l-.41.1-.41.11-.46.13L93.6,43l1-.23ZM80.66,67.75c0,.14,0,.28.08.42s.07.28.11.41C80.78,68.31,80.72,68,80.66,67.75Zm-.54-6.14v.55c0-.35,0-.69,0-1C80.13,61.29,80.12,61.45,80.12,61.61ZM110.5,28V47.78h0V28ZM99.4,42.17l-.53,0c.41,0,.83,0,1.25,0Zm-2.72.2-.78.11L97,42.34Zm-2.7.49h0l-.41.1-.41.11-.46.13L93.6,43l1-.23ZM80.66,67.75c0,.14,0,.28.08.42s.07.28.11.41C80.78,68.31,80.72,68,80.66,67.75Zm-.54-6.14v.55c0-.35,0-.69,0-1C80.13,61.29,80.12,61.45,80.12,61.61Zm57-18.68v8.7s0,0,0,0V42.93Zm0,17.31V81.39h0V60.24l.06-.17C137.15,60.13,137.13,60.19,137.11,60.24ZM149.8,42.16c0,.1,0,.2,0,.3a2,2,0,0,1,0-.24.13.13,0,0,1,0-.06Zm18.6,0-.3,0h.3ZM158.87,44c.59-.25,1.19-.47,1.81-.67A18.63,18.63,0,0,0,158.87,44Zm-9.46,9.21q-.19.4-.36.84c.12-.29.24-.57.37-.84s.2-.43.31-.64C149.62,52.81,149.51,53,149.41,53.24Zm-1.21,3.55a3.55,3.55,0,0,0-.09.47c0-.16.07-.32.1-.47s.11-.47.17-.7ZM190.4,43V95.65h0V43h0Zm11.95,4.11a9.53,9.53,0,0,1,1.13-1.45A7,7,0,0,0,202.35,47.11Zm62-4.54v10L252.66,65.14l-3.48,3.73,3.49-3.73,11.74-12.57v-10ZM252.18,71.28,252,71.1l.22.19L261,78.41h0ZM264.4,42.57v10L252.66,65.14l-3.48,3.73,3.49-3.73,11.74-12.57v-10ZM252.18,71.28,252,71.1l.22.19L261,78.41h0ZM190.4,43V95.65h0V43h0Zm11.95,4.11a9.53,9.53,0,0,1,1.13-1.45A7,7,0,0,0,202.35,47.11Zm-33.95-5-.3,0h.3ZM158.87,44c.59-.25,1.19-.47,1.81-.67A18.63,18.63,0,0,0,158.87,44Zm-9.46,9.21q-.19.4-.36.84c.12-.29.24-.57.37-.84s.2-.43.31-.64C149.62,52.81,149.51,53,149.41,53.24Zm-1.21,3.55a3.55,3.55,0,0,0-.09.47c0-.16.07-.32.1-.47s.11-.47.17-.7ZM137.11,42.93v8.7s0,0,0,0V42.93Zm0,17.31V81.39h0V60.24l.06-.17C137.15,60.13,137.13,60.19,137.11,60.24ZM149.8,42.16c0,.1,0,.2,0,.3a2,2,0,0,1,0-.24.13.13,0,0,1,0-.06ZM110.5,28V47.78h0V28ZM99.4,42.17l-.53,0c.41,0,.83,0,1.25,0Zm-2.72.2-.78.11L97,42.34Zm-2.7.49h0l-.41.1-.41.11-.46.13L93.6,43l1-.23ZM80.66,67.75c0,.14,0,.28.08.42s.07.28.11.41C80.78,68.31,80.72,68,80.66,67.75Zm-.54-6.14v.55c0-.35,0-.69,0-1C80.13,61.29,80.12,61.45,80.12,61.61ZM110.5,28V47.78h0V28ZM99.4,42.17l-.53,0c.41,0,.83,0,1.25,0Zm-2.72.2-.78.11L97,42.34Zm-2.7.49h0l-.41.1-.41.11-.46.13L93.6,43l1-.23ZM80.66,67.75c0,.14,0,.28.08.42s.07.28.11.41C80.78,68.31,80.72,68,80.66,67.75Zm-.54-6.14v.55c0-.35,0-.69,0-1C80.13,61.29,80.12,61.45,80.12,61.61Zm57-18.68v8.7s0,0,0,0V42.93Zm0,17.31V81.39h0V60.24l.06-.17C137.15,60.13,137.13,60.19,137.11,60.24ZM149.8,42.16c0,.1,0,.2,0,.3a2,2,0,0,1,0-.24.13.13,0,0,1,0-.06Zm18.6,0-.3,0h.3ZM158.87,44c.59-.25,1.19-.47,1.81-.67A18.63,18.63,0,0,0,158.87,44Zm-9.46,9.21q-.19.4-.36.84c.12-.29.24-.57.37-.84s.2-.43.31-.64C149.62,52.81,149.51,53,149.41,53.24Zm-1.21,3.55a3.55,3.55,0,0,0-.09.47c0-.16.07-.32.1-.47s.11-.47.17-.7ZM190.4,43V95.65h0V43h0Zm11.95,4.11a9.53,9.53,0,0,1,1.13-1.45A7,7,0,0,0,202.35,47.11Zm62-4.54v10L252.66,65.14l-3.48,3.73,3.49-3.73,11.74-12.57v-10ZM252.18,71.28,252,71.1l.22.19L261,78.41h0ZM264.4,42.57v10L252.66,65.14l-3.48,3.73,3.49-3.73,11.74-12.57v-10ZM252.18,71.28,252,71.1l.22.19L261,78.41h0ZM190.4,43V95.65h0V43h0Zm11.95,4.11a9.53,9.53,0,0,1,1.13-1.45A7,7,0,0,0,202.35,47.11Zm-33.95-5-.3,0h.3ZM158.87,44c.59-.25,1.19-.47,1.81-.67A18.63,18.63,0,0,0,158.87,44Zm-9.46,9.21q-.19.4-.36.84c.12-.29.24-.57.37-.84s.2-.43.31-.64C149.62,52.81,149.51,53,149.41,53.24Zm-1.21,3.55a3.55,3.55,0,0,0-.09.47c0-.16.07-.32.1-.47s.11-.47.17-.7ZM137.11,42.93v8.7s0,0,0,0V42.93Zm0,17.31V81.39h0V60.24l.06-.17C137.15,60.13,137.13,60.19,137.11,60.24ZM149.8,42.16c0,.1,0,.2,0,.3a2,2,0,0,1,0-.24.13.13,0,0,1,0-.06ZM110.5,28V47.78h0V28ZM99.4,42.17l-.53,0c.41,0,.83,0,1.25,0Zm-2.72.2-.78.11L97,42.34Zm-2.7.49h0l-.41.1-.41.11-.46.13L93.6,43l1-.23ZM80.66,67.75c0,.14,0,.28.08.42s.07.28.11.41C80.78,68.31,80.72,68,80.66,67.75Zm-.54-6.14v.55c0-.35,0-.69,0-1C80.13,61.29,80.12,61.45,80.12,61.61Zm0,0v.55c0-.35,0-.69,0-1C80.13,61.29,80.12,61.45,80.12,61.61Zm.54,6.14c0,.14,0,.28.08.42s.07.28.11.41C80.78,68.31,80.72,68,80.66,67.75ZM94,42.86h0l-.41.1-.41.11-.46.13L93.6,43l1-.23Zm2.7-.49-.78.11L97,42.34Zm2.72-.2-.53,0c.41,0,.83,0,1.25,0ZM110.5,28V47.78h0V28Zm26.61,14.92v8.7s0,0,0,0V42.93Zm0,17.31V81.39h0V60.24l.06-.17C137.15,60.13,137.13,60.19,137.11,60.24ZM149.8,42.16c0,.1,0,.2,0,.3a2,2,0,0,1,0-.24.13.13,0,0,1,0-.06Zm18.6,0-.3,0h.3ZM158.87,44c.59-.25,1.19-.47,1.81-.67A18.63,18.63,0,0,0,158.87,44Zm-9.46,9.21q-.19.4-.36.84c.12-.29.24-.57.37-.84s.2-.43.31-.64C149.62,52.81,149.51,53,149.41,53.24Zm-1.21,3.55a3.55,3.55,0,0,0-.09.47c0-.16.07-.32.1-.47s.11-.47.17-.7ZM190.4,43V95.65h0V43h0Zm11.95,4.11a9.53,9.53,0,0,1,1.13-1.45A7,7,0,0,0,202.35,47.11Zm62-4.54v10L252.66,65.14l-3.48,3.73,3.49-3.73,11.74-12.57v-10ZM252.18,71.28,252,71.1l.22.19L261,78.41h0ZM264.4,42.57v10L252.66,65.14l-3.48,3.73,3.49-3.73,11.74-12.57v-10ZM252.18,71.28,252,71.1l.22.19L261,78.41h0ZM190.4,43V95.65h0V43h0Zm11.95,4.11a9.53,9.53,0,0,1,1.13-1.45A7,7,0,0,0,202.35,47.11Zm-33.95-5-.3,0h.3ZM158.87,44c.59-.25,1.19-.47,1.81-.67A18.63,18.63,0,0,0,158.87,44Zm-9.07-1.87c0,.1,0,.2,0,.3a2,2,0,0,1,0-.24.13.13,0,0,1,0-.06Zm-.39,11.08q-.19.4-.36.84c.12-.29.24-.57.37-.84s.2-.43.31-.64C149.62,52.81,149.51,53,149.41,53.24Zm-1.21,3.55a3.55,3.55,0,0,0-.09.47c0-.16.07-.32.1-.47s.11-.47.17-.7Zm-11.09,3.45V81.39h0V60.24l.06-.17C137.15,60.13,137.13,60.19,137.11,60.24Zm0-17.31v8.7s0,0,0,0V42.93ZM110.5,28V47.78h0V28ZM99.4,42.17l-.53,0c.41,0,.83,0,1.25,0Zm-2.72.2-.78.11L97,42.34Zm-2.7.49h0l-.41.1-.41.11-.46.13L93.6,43l1-.23ZM80.66,67.75c0,.14,0,.28.08.42s.07.28.11.41C80.78,68.31,80.72,68,80.66,67.75Zm-.54-6.14v.55c0-.35,0-.69,0-1C80.13,61.29,80.12,61.45,80.12,61.61Zm0,0v.55c0-.35,0-.69,0-1C80.13,61.29,80.12,61.45,80.12,61.61Zm.54,6.14c0,.14,0,.28.08.42s.07.28.11.41C80.78,68.31,80.72,68,80.66,67.75ZM94,42.86h0l-.41.1-.41.11-.46.13L93.6,43l1-.23Zm2.7-.49-.78.11L97,42.34Zm2.72-.2-.53,0c.41,0,.83,0,1.25,0ZM110.5,28V47.78h0V28Zm26.61,14.92v8.7s0,0,0,0V42.93Zm0,17.31V81.39h0V60.24l.06-.17C137.15,60.13,137.13,60.19,137.11,60.24Zm11.09-3.45a3.55,3.55,0,0,0-.09.47c0-.16.07-.32.1-.47s.11-.47.17-.7Zm1.21-3.55q-.19.4-.36.84c.12-.29.24-.57.37-.84s.2-.43.31-.64C149.62,52.81,149.51,53,149.41,53.24Zm.39-11.08c0,.1,0,.2,0,.3a2,2,0,0,1,0-.24.13.13,0,0,1,0-.06ZM158.87,44c.59-.25,1.19-.47,1.81-.67A18.63,18.63,0,0,0,158.87,44Zm9.53-1.87-.3,0h.3Zm22,.84V95.65h0V43h0Zm11.95,4.11a9.53,9.53,0,0,1,1.13-1.45A7,7,0,0,0,202.35,47.11Zm62-4.54v10L252.66,65.14l-3.48,3.73,3.49-3.73,11.74-12.57v-10ZM252.18,71.28,252,71.1l.22.19L261,78.41h0ZM264.4,42.57v10L252.66,65.14l-3.48,3.73,3.49-3.73,11.74-12.57v-10ZM252.18,71.28,252,71.1l.22.19L261,78.41h0ZM202.35,47.11a9.53,9.53,0,0,1,1.13-1.45A7,7,0,0,0,202.35,47.11ZM190.4,43V95.65h0V43h0Zm-22-.84-.3,0h.3ZM158.87,44c.59-.25,1.19-.47,1.81-.67A18.63,18.63,0,0,0,158.87,44Zm-9.07-1.87c0,.1,0,.2,0,.3a2,2,0,0,1,0-.24.13.13,0,0,1,0-.06Zm-.39,11.08q-.19.4-.36.84c.12-.29.24-.57.37-.84s.2-.43.31-.64C149.62,52.81,149.51,53,149.41,53.24Zm-1.21,3.55a3.55,3.55,0,0,0-.09.47c0-.16.07-.32.1-.47s.11-.47.17-.7Zm-11.09,3.45V81.39h0V60.24l.06-.17C137.15,60.13,137.13,60.19,137.11,60.24Zm0-17.31v8.7s0,0,0,0V42.93ZM110.5,28V47.78h0V28ZM99.4,42.17l-.53,0c.41,0,.83,0,1.25,0Zm-2.72.2-.78.11L97,42.34Zm-2.7.49h0l-.41.1-.41.11-.46.13L93.6,43l1-.23ZM80.66,67.75c0,.14,0,.28.08.42s.07.28.11.41C80.78,68.31,80.72,68,80.66,67.75Zm-.54-6.14v.55c0-.35,0-.69,0-1C80.13,61.29,80.12,61.45,80.12,61.61Zm0,0v.55c0-.35,0-.69,0-1C80.13,61.29,80.12,61.45,80.12,61.61Zm.54,6.14c0,.14,0,.28.08.42s.07.28.11.41C80.78,68.31,80.72,68,80.66,67.75ZM94,42.86h0l-.41.1-.41.11-.46.13L93.6,43l1-.23Zm2.7-.49-.78.11L97,42.34Zm2.72-.2-.53,0c.41,0,.83,0,1.25,0ZM110.5,28V47.78h0V28Zm26.61,14.92v8.7s0,0,0,0V42.93Zm0,17.31V81.39h0V60.24l.06-.17C137.15,60.13,137.13,60.19,137.11,60.24Zm11.09-3.45a3.55,3.55,0,0,0-.09.47c0-.16.07-.32.1-.47s.11-.47.17-.7Zm1.21-3.55q-.19.4-.36.84c.12-.29.24-.57.37-.84s.2-.43.31-.64C149.62,52.81,149.51,53,149.41,53.24Zm.39-11.08c0,.1,0,.2,0,.3a2,2,0,0,1,0-.24.13.13,0,0,1,0-.06ZM158.87,44c.59-.25,1.19-.47,1.81-.67A18.63,18.63,0,0,0,158.87,44Zm9.53-1.87-.3,0h.3Zm22,.84V95.65h0V43h0Zm11.95,4.11a9.53,9.53,0,0,1,1.13-1.45A7,7,0,0,0,202.35,47.11Zm49.83,24.17L252,71.1l.22.19L261,78.41h0ZM264.4,42.57v10L252.66,65.14l-3.48,3.73,3.49-3.73,11.74-12.57v-10Zm0,0v10L252.66,65.14l-3.48,3.73,3.49-3.73,11.74-12.57v-10ZM252,71.1l.22.19L261,78.41h0l-8.86-7.12ZM203.48,45.66a7,7,0,0,0-1.13,1.45A9.53,9.53,0,0,1,203.48,45.66Zm-13.08,50h0V43h0ZM168.1,42.18h.3Zm-7.42,1.18a18.63,18.63,0,0,0-1.81.67C159.46,43.78,160.06,43.56,160.68,43.36Zm-10.92-.9a2,2,0,0,1,0-.24.13.13,0,0,1,0-.06h0C149.78,42.26,149.77,42.36,149.76,42.46Zm-.71,11.62c.12-.29.24-.57.37-.84s.2-.43.31-.64c-.11.21-.22.43-.32.64S149.16,53.79,149.05,54.08Zm-.94,3.18c0-.16.07-.32.1-.47s.11-.47.17-.7l-.18.7A3.55,3.55,0,0,0,148.11,57.26Zm-11,24.13h0V60.24l.06-.17c0,.06-.05.12-.07.17Zm0-38.46h0v8.7s0,0,0,0ZM110.5,47.78h0V28h0ZM98.87,42.19c.41,0,.83,0,1.25,0H99.4Zm-3,.29L97,42.34l-.29,0Zm-2,.39-.41.1-.41.11-.46.13L93.6,43l1-.23-.57.13Zm-13.2,25.3c0,.14.07.28.11.41-.07-.27-.13-.55-.19-.83C80.69,67.89,80.71,68,80.74,68.17Zm-.62-6c0-.35,0-.69,0-1,0,.16,0,.32,0,.48Zm193.6-8.25-.06-.19V33.32H223.54v1.45l-.4-.14A35.09,35.09,0,0,0,212.33,33a23.63,23.63,0,0,0-4.75.51,22.66,22.66,0,0,0-4.92,1.61c-.41.19-.8.39-1.19.6L199,33.76H181.15v1.57c-.72-.28-1.46-.55-2.21-.8a35,35,0,0,0-18.41-.72l.15-.9H149.81a22.64,22.64,0,0,0-5.88.77H131.29V18.75h-30V32.93c-.37,0-.74,0-1.13,0a35.12,35.12,0,0,0-10.77,1.65,25.8,25.8,0,0,0-9.81,5.68,26.67,26.67,0,0,0-6.45,9.5,32.63,32.63,0,0,0-2.22,12.42,32.53,32.53,0,0,0,2.21,12.39,26.48,26.48,0,0,0,6.5,9.58,26,26,0,0,0,9.78,5.65,34.86,34.86,0,0,0,10.76,1.63,23.19,23.19,0,0,0,4.74-.49,22.71,22.71,0,0,0,4.9-1.61c.42-.2.83-.4,1.22-.61l2.47,1.94h32.92V82.79c.54.56,1.11,1.08,1.69,1.58a28.74,28.74,0,0,0,9.81,5.43,35.2,35.2,0,0,0,21.11,0c.74-.24,1.46-.5,2.17-.79v15.92h30V91.47c.37,0,.74,0,1.13,0a34.72,34.72,0,0,0,10.81-1.64l.4-.13v.63h39.14l7.78-9.18a14.28,14.28,0,0,0,6.25-8.86C277.22,70.06,277.46,65.7,273.72,53.91ZM272.2,71.3a9.62,9.62,0,0,1-4.77,6.29l-6.9,8.14H228.17V82.11a21.6,21.6,0,0,1-6.45,3.34,30.33,30.33,0,0,1-9.39,1.41,21.1,21.1,0,0,1-5.76-.71v14.13H185.78V80.82h0a24.12,24.12,0,0,1-8.21,4.55,30.57,30.57,0,0,1-18.29,0,24.13,24.13,0,0,1-8.21-4.53A23.09,23.09,0,0,1,145.21,73,25.55,25.55,0,0,1,143,62.16a29.65,29.65,0,0,1,.18-3.31,6.15,6.15,0,0,0-.87,1.16c-.25.46-.44.84-.58,1.13V86H115.05l-3.85-3a14.58,14.58,0,0,1-3.36,2.12,17.83,17.83,0,0,1-3.92,1.29,18.64,18.64,0,0,1-3.8.39,30.42,30.42,0,0,1-9.34-1.4,21,21,0,0,1-13.4-12.56,27.83,27.83,0,0,1-1.89-10.66,27.92,27.92,0,0,1,1.89-10.67,21.89,21.89,0,0,1,5.31-7.87A21.4,21.4,0,0,1,90.77,39a30.13,30.13,0,0,1,9.35-1.43,20.62,20.62,0,0,1,5.75.72V23.38h20.8V38.31h15.07v1.12a18.06,18.06,0,0,1,8.07-1.9h5.43L154.69,41a23.53,23.53,0,0,1,4.59-2,30.06,30.06,0,0,1,18.26,0,23.62,23.62,0,0,1,8.23,4.55h0V38.38h11.61l3.86,3a15.31,15.31,0,0,1,3.34-2.1A17.63,17.63,0,0,1,208.51,38a18.7,18.7,0,0,1,3.82-.41A30.52,30.52,0,0,1,221.72,39a22.23,22.23,0,0,1,6.45,3.36V37.94H269V54.41l.29.9C271,60.77,272.94,68,272.2,71.3Zm-7.8-18.73L252.66,65.14l-3.48,3.73,3.49-3.73,11.74-12.57v-10h0ZM252,71.1l.22.19L261,78.41h0l-8.86-7.12ZM203.48,45.66a7,7,0,0,0-1.13,1.45A9.53,9.53,0,0,1,203.48,45.66Zm-13.08,50h0V43h0ZM168.1,42.18h.3Zm-7.42,1.18a18.63,18.63,0,0,0-1.81.67C159.46,43.78,160.06,43.56,160.68,43.36Zm-10.92-.9a2,2,0,0,1,0-.24.13.13,0,0,1,0-.06h0C149.78,42.26,149.77,42.36,149.76,42.46Zm-.71,11.62c.12-.29.24-.57.37-.84s.2-.43.31-.64c-.11.21-.22.43-.32.64S149.16,53.79,149.05,54.08Zm-.94,3.18c0-.16.07-.32.1-.47s.11-.47.17-.7l-.18.7A3.55,3.55,0,0,0,148.11,57.26Zm-11,24.13h0V60.24l.06-.17c0,.06-.05.12-.07.17Zm0-38.46h0v8.7s0,0,0,0ZM110.5,47.78h0V28h0ZM98.87,42.19c.41,0,.83,0,1.25,0H99.4Zm-3,.29L97,42.34l-.29,0Zm-2,.39-.41.1-.41.11-.46.13L93.6,43l1-.23-.57.13Zm-13.2,25.3c0,.14.07.28.11.41-.07-.27-.13-.55-.19-.83C80.69,67.89,80.71,68,80.74,68.17Zm-.62-6c0-.35,0-.69,0-1,0,.16,0,.32,0,.48Zm0-.55v.55c0-.35,0-.69,0-1C80.13,61.29,80.12,61.45,80.12,61.61Zm.54,6.14c0,.14,0,.28.08.42s.07.28.11.41C80.78,68.31,80.72,68,80.66,67.75ZM94,42.86h0l-.41.1-.41.11-.46.13L93.6,43l1-.23Zm2.7-.49-.78.11L97,42.34Zm2.72-.2-.53,0c.41,0,.83,0,1.25,0ZM110.5,28V47.78h0V28Zm26.61,14.92v8.7s0,0,0,0V42.93Zm0,17.31V81.39h0V60.24l.06-.17C137.15,60.13,137.13,60.19,137.11,60.24Zm11.09-3.45a3.55,3.55,0,0,0-.09.47c0-.16.07-.32.1-.47s.11-.47.17-.7Zm1.21-3.55q-.19.4-.36.84c.12-.29.24-.57.37-.84s.2-.43.31-.64C149.62,52.81,149.51,53,149.41,53.24Zm.39-11.08c0,.1,0,.2,0,.3a2,2,0,0,1,0-.24.13.13,0,0,1,0-.06ZM158.87,44c.59-.25,1.19-.47,1.81-.67A18.63,18.63,0,0,0,158.87,44Zm9.53-1.87-.3,0h.3Zm22,.84V95.65h0V43h0Zm11.95,4.11a9.53,9.53,0,0,1,1.13-1.45A7,7,0,0,0,202.35,47.11Zm49.83,24.17L252,71.1l.22.19L261,78.41h0ZM264.4,42.57v10L252.66,65.14l-3.48,3.73,3.49-3.73,11.74-12.57v-10Zm0,0v10L252.66,65.14l-3.48,3.73,3.49-3.73,11.74-12.57v-10ZM252.18,71.28,252,71.1l.22.19L261,78.41h0ZM202.35,47.11a9.53,9.53,0,0,1,1.13-1.45A7,7,0,0,0,202.35,47.11ZM190.4,43V95.65h0V43h0Zm-22-.84-.3,0h.3ZM158.87,44c.59-.25,1.19-.47,1.81-.67A18.63,18.63,0,0,0,158.87,44Zm-9.07-1.87c0,.1,0,.2,0,.3a2,2,0,0,1,0-.24.13.13,0,0,1,0-.06Zm-.39,11.08q-.19.4-.36.84c.12-.29.24-.57.37-.84s.2-.43.31-.64C149.62,52.81,149.51,53,149.41,53.24Zm-1.21,3.55a3.55,3.55,0,0,0-.09.47c0-.16.07-.32.1-.47s.11-.47.17-.7Zm-11.09,3.45V81.39h0V60.24l.06-.17C137.15,60.13,137.13,60.19,137.11,60.24Zm0-17.31v8.7s0,0,0,0V42.93ZM110.5,28V47.78h0V28ZM99.4,42.17l-.53,0c.41,0,.83,0,1.25,0Zm-2.72.2-.78.11L97,42.34Zm-2.7.49h0l-.41.1-.41.11-.46.13L93.6,43l1-.23ZM80.66,67.75c0,.14,0,.28.08.42s.07.28.11.41C80.78,68.31,80.72,68,80.66,67.75Zm-.54-6.14v.55c0-.35,0-.69,0-1C80.13,61.29,80.12,61.45,80.12,61.61Zm0,0v.55c0-.35,0-.69,0-1C80.13,61.29,80.12,61.45,80.12,61.61Zm.54,6.14c0,.14,0,.28.08.42s.07.28.11.41C80.78,68.31,80.72,68,80.66,67.75ZM94,42.86h0l-.41.1-.41.11-.46.13L93.6,43l1-.23Zm2.7-.49-.78.11L97,42.34Zm2.72-.2-.53,0c.41,0,.83,0,1.25,0ZM110.5,28V47.78h0V28Zm26.61,14.92v8.7s0,0,0,0V42.93Zm0,17.31V81.39h0V60.24l.06-.17C137.15,60.13,137.13,60.19,137.11,60.24Zm11.09-3.45a3.55,3.55,0,0,0-.09.47c0-.16.07-.32.1-.47s.11-.47.17-.7Zm1.21-3.55q-.19.4-.36.84c.12-.29.24-.57.37-.84s.2-.43.31-.64C149.62,52.81,149.51,53,149.41,53.24Zm.39-11.08c0,.1,0,.2,0,.3a2,2,0,0,1,0-.24.13.13,0,0,1,0-.06ZM158.87,44c.59-.25,1.19-.47,1.81-.67A18.63,18.63,0,0,0,158.87,44Zm9.53-1.87-.3,0h.3Zm22,.84V95.65h0V43h0Zm11.95,4.11a9.53,9.53,0,0,1,1.13-1.45A7,7,0,0,0,202.35,47.11Zm62-4.54v10L252.66,65.14l-3.48,3.73,3.49-3.73,11.74-12.57v-10ZM252.18,71.28,252,71.1l.22.19L261,78.41h0ZM264.4,42.57v10L252.66,65.14l-3.48,3.73,3.49-3.73,11.74-12.57v-10ZM252.18,71.28,252,71.1l.22.19L261,78.41h0ZM190.4,43V95.65h0V43h0Zm11.95,4.11a9.53,9.53,0,0,1,1.13-1.45A7,7,0,0,0,202.35,47.11Zm-33.95-5-.3,0h.3ZM158.87,44c.59-.25,1.19-.47,1.81-.67A18.63,18.63,0,0,0,158.87,44Zm-9.07-1.87c0,.1,0,.2,0,.3a2,2,0,0,1,0-.24.13.13,0,0,1,0-.06Zm-.39,11.08q-.19.4-.36.84c.12-.29.24-.57.37-.84s.2-.43.31-.64C149.62,52.81,149.51,53,149.41,53.24Zm-1.21,3.55a3.55,3.55,0,0,0-.09.47c0-.16.07-.32.1-.47s.11-.47.17-.7Zm-11.09,3.45V81.39h0V60.24l.06-.17C137.15,60.13,137.13,60.19,137.11,60.24Zm0-17.31v8.7s0,0,0,0V42.93ZM110.5,28V47.78h0V28ZM99.4,42.17l-.53,0c.41,0,.83,0,1.25,0Zm-2.72.2-.78.11L97,42.34Zm-2.7.49h0l-.41.1-.41.11-.46.13L93.6,43l1-.23ZM80.66,67.75c0,.14,0,.28.08.42s.07.28.11.41C80.78,68.31,80.72,68,80.66,67.75Zm-.54-6.14v.55c0-.35,0-.69,0-1C80.13,61.29,80.12,61.45,80.12,61.61Zm0,0v.55c0-.35,0-.69,0-1C80.13,61.29,80.12,61.45,80.12,61.61Zm.54,6.14c0,.14,0,.28.08.42s.07.28.11.41C80.78,68.31,80.72,68,80.66,67.75ZM94,42.86h0l-.41.1-.41.11-.46.13L93.6,43l1-.23Zm2.7-.49-.78.11L97,42.34Zm2.72-.2-.53,0c.41,0,.83,0,1.25,0ZM110.5,28V47.78h0V28Zm26.61,14.92v8.7s0,0,0,0V42.93Zm0,17.31V81.39h0V60.24l.06-.17C137.15,60.13,137.13,60.19,137.11,60.24ZM149.8,42.16c0,.1,0,.2,0,.3a2,2,0,0,1,0-.24.13.13,0,0,1,0-.06Zm18.6,0-.3,0h.3ZM158.87,44c.59-.25,1.19-.47,1.81-.67A18.63,18.63,0,0,0,158.87,44Zm-9.46,9.21q-.19.4-.36.84c.12-.29.24-.57.37-.84s.2-.43.31-.64C149.62,52.81,149.51,53,149.41,53.24Zm-1.21,3.55a3.55,3.55,0,0,0-.09.47c0-.16.07-.32.1-.47s.11-.47.17-.7ZM190.4,43V95.65h0V43h0Zm11.95,4.11a9.53,9.53,0,0,1,1.13-1.45A7,7,0,0,0,202.35,47.11Zm62-4.54v10L252.66,65.14l-3.48,3.73,3.49-3.73,11.74-12.57v-10ZM252.18,71.28,252,71.1l.22.19L261,78.41h0ZM264.4,42.57v10L252.66,65.14l-3.48,3.73,3.49-3.73,11.74-12.57v-10ZM252.18,71.28,252,71.1l.22.19L261,78.41h0ZM190.4,43V95.65h0V43h0Zm11.95,4.11a9.53,9.53,0,0,1,1.13-1.45A7,7,0,0,0,202.35,47.11Zm-33.95-5-.3,0h.3ZM158.87,44c.59-.25,1.19-.47,1.81-.67A18.63,18.63,0,0,0,158.87,44Zm-9.46,9.21q-.19.4-.36.84c.12-.29.24-.57.37-.84s.2-.43.31-.64C149.62,52.81,149.51,53,149.41,53.24Zm-1.21,3.55a3.55,3.55,0,0,0-.09.47c0-.16.07-.32.1-.47s.11-.47.17-.7ZM137.11,42.93v8.7s0,0,0,0V42.93Zm0,17.31V81.39h0V60.24l.06-.17C137.15,60.13,137.13,60.19,137.11,60.24ZM149.8,42.16c0,.1,0,.2,0,.3a2,2,0,0,1,0-.24.13.13,0,0,1,0-.06ZM110.5,28V47.78h0V28ZM99.4,42.17l-.53,0c.41,0,.83,0,1.25,0Zm-2.72.2-.78.11L97,42.34Zm-2.7.49h0l-.41.1-.41.11-.46.13L93.6,43l1-.23ZM80.66,67.75c0,.14,0,.28.08.42s.07.28.11.41C80.78,68.31,80.72,68,80.66,67.75Zm-.54-6.14v.55c0-.35,0-.69,0-1C80.13,61.29,80.12,61.45,80.12,61.61ZM110.5,28V47.78h0V28ZM99.4,42.17l-.53,0c.41,0,.83,0,1.25,0Zm-2.72.2-.78.11L97,42.34Zm-2.7.49h0l-.41.1-.41.11-.46.13L93.6,43l1-.23ZM80.66,67.75c0,.14,0,.28.08.42s.07.28.11.41C80.78,68.31,80.72,68,80.66,67.75Zm-.54-6.14v.55c0-.35,0-.69,0-1C80.13,61.29,80.12,61.45,80.12,61.61Zm57-18.68v8.7s0,0,0,0V42.93Zm0,17.31V81.39h0V60.24l.06-.17C137.15,60.13,137.13,60.19,137.11,60.24ZM149.8,42.16c0,.1,0,.2,0,.3a2,2,0,0,1,0-.24.13.13,0,0,1,0-.06Zm18.6,0-.3,0h.3ZM158.87,44c.59-.25,1.19-.47,1.81-.67A18.63,18.63,0,0,0,158.87,44Zm-9.46,9.21q-.19.4-.36.84c.12-.29.24-.57.37-.84s.2-.43.31-.64C149.62,52.81,149.51,53,149.41,53.24Zm-1.21,3.55a3.55,3.55,0,0,0-.09.47c0-.16.07-.32.1-.47s.11-.47.17-.7ZM190.4,43V95.65h0V43h0Zm11.95,4.11a9.53,9.53,0,0,1,1.13-1.45A7,7,0,0,0,202.35,47.11Zm62-4.54v10L252.66,65.14l-3.48,3.73,3.49-3.73,11.74-12.57v-10ZM252.18,71.28,252,71.1l.22.19L261,78.41h0ZM264.4,42.57v10L252.66,65.14l-3.48,3.73,3.49-3.73,11.74-12.57v-10ZM252.18,71.28,252,71.1l.22.19L261,78.41h0ZM190.4,43V95.65h0V43h0Zm11.95,4.11a9.53,9.53,0,0,1,1.13-1.45A7,7,0,0,0,202.35,47.11Zm-33.95-5-.3,0h.3ZM158.87,44c.59-.25,1.19-.47,1.81-.67A18.63,18.63,0,0,0,158.87,44Zm-9.46,9.21q-.19.4-.36.84c.12-.29.24-.57.37-.84s.2-.43.31-.64C149.62,52.81,149.51,53,149.41,53.24Zm-1.21,3.55a3.55,3.55,0,0,0-.09.47c0-.16.07-.32.1-.47s.11-.47.17-.7ZM137.11,42.93v8.7s0,0,0,0V42.93Zm0,17.31V81.39h0V60.24l.06-.17C137.15,60.13,137.13,60.19,137.11,60.24ZM149.8,42.16c0,.1,0,.2,0,.3a2,2,0,0,1,0-.24.13.13,0,0,1,0-.06ZM110.5,28V47.78h0V28ZM99.4,42.17l-.53,0c.41,0,.83,0,1.25,0Zm-2.72.2-.78.11L97,42.34Zm-2.7.49h0l-.41.1-.41.11-.46.13L93.6,43l1-.23ZM80.66,67.75c0,.14,0,.28.08.42s.07.28.11.41C80.78,68.31,80.72,68,80.66,67.75Zm-.54-6.14v.55c0-.35,0-.69,0-1C80.13,61.29,80.12,61.45,80.12,61.61ZM110.5,28V47.78h0V28ZM99.4,42.17l-.53,0c.41,0,.83,0,1.25,0Zm-2.72.2-.78.11L97,42.34Zm-2.7.49h0l-.41.1-.41.11-.46.13L93.6,43l1-.23ZM80.66,67.75c0,.14,0,.28.08.42s.07.28.11.41C80.78,68.31,80.72,68,80.66,67.75Zm-.54-6.14v.55c0-.35,0-.69,0-1C80.13,61.29,80.12,61.45,80.12,61.61Zm57-18.68v8.7s0,0,0,0V42.93Zm0,17.31V81.39h0V60.24l.06-.17C137.15,60.13,137.13,60.19,137.11,60.24ZM149.8,42.16c0,.1,0,.2,0,.3a2,2,0,0,1,0-.24.13.13,0,0,1,0-.06Zm18.6,0-.3,0h.3ZM158.87,44c.59-.25,1.19-.47,1.81-.67A18.63,18.63,0,0,0,158.87,44Zm-9.46,9.21q-.19.4-.36.84c.12-.29.24-.57.37-.84s.2-.43.31-.64C149.62,52.81,149.51,53,149.41,53.24Zm-1.21,3.55a3.55,3.55,0,0,0-.09.47c0-.16.07-.32.1-.47s.11-.47.17-.7ZM190.4,43V95.65h0V43h0Zm11.95,4.11a9.53,9.53,0,0,1,1.13-1.45A7,7,0,0,0,202.35,47.11Zm62-4.54v10L252.66,65.14l-3.48,3.73,3.49-3.73,11.74-12.57v-10ZM252.18,71.28,252,71.1l.22.19L261,78.41h0ZM264.4,42.57v10L252.66,65.14l-3.48,3.73,3.49-3.73,11.74-12.57v-10ZM252.18,71.28,252,71.1l.22.19L261,78.41h0ZM190.4,43V95.65h0V43h0Zm11.95,4.11a9.53,9.53,0,0,1,1.13-1.45A7,7,0,0,0,202.35,47.11Zm-33.95-5-.3,0h.3ZM158.87,44c.59-.25,1.19-.47,1.81-.67A18.63,18.63,0,0,0,158.87,44Zm-9.46,9.21q-.19.4-.36.84c.12-.29.24-.57.37-.84s.2-.43.31-.64C149.62,52.81,149.51,53,149.41,53.24Zm-1.21,3.55a3.55,3.55,0,0,0-.09.47c0-.16.07-.32.1-.47s.11-.47.17-.7ZM137.11,42.93v8.7s0,0,0,0V42.93Zm0,17.31V81.39h0V60.24l.06-.17C137.15,60.13,137.13,60.19,137.11,60.24ZM149.8,42.16c0,.1,0,.2,0,.3a2,2,0,0,1,0-.24.13.13,0,0,1,0-.06ZM110.5,28V47.78h0V28ZM99.4,42.17l-.53,0c.41,0,.83,0,1.25,0Zm-2.72.2-.78.11L97,42.34Zm-2.7.49h0l-.41.1-.41.11-.46.13L93.6,43l1-.23ZM80.66,67.75c0,.14,0,.28.08.42s.07.28.11.41C80.78,68.31,80.72,68,80.66,67.75Zm-.54-6.14v.55c0-.35,0-.69,0-1C80.13,61.29,80.12,61.45,80.12,61.61ZM110.5,28V47.78h0V28ZM99.4,42.17l-.53,0c.41,0,.83,0,1.25,0Zm-2.72.2-.78.11L97,42.34Zm-2.7.49h0l-.41.1-.41.11-.46.13L93.6,43l1-.23ZM80.66,67.75c0,.14,0,.28.08.42s.07.28.11.41C80.78,68.31,80.72,68,80.66,67.75Zm-.54-6.14v.55c0-.35,0-.69,0-1C80.13,61.29,80.12,61.45,80.12,61.61Zm57-18.68v8.7s0,0,0,0V42.93Zm0,17.31V81.39h0V60.24l.06-.17C137.15,60.13,137.13,60.19,137.11,60.24ZM149.8,42.16c0,.1,0,.2,0,.3a2,2,0,0,1,0-.24.13.13,0,0,1,0-.06Zm18.6,0-.3,0h.3ZM158.87,44c.59-.25,1.19-.47,1.81-.67A18.63,18.63,0,0,0,158.87,44Zm-9.46,9.21q-.19.4-.36.84c.12-.29.24-.57.37-.84s.2-.43.31-.64C149.62,52.81,149.51,53,149.41,53.24Zm-1.21,3.55a3.55,3.55,0,0,0-.09.47c0-.16.07-.32.1-.47s.11-.47.17-.7ZM190.4,43V95.65h0V43h0Zm11.95,4.11a9.53,9.53,0,0,1,1.13-1.45A7,7,0,0,0,202.35,47.11Zm62-4.54v10L252.66,65.14l-3.48,3.73,3.49-3.73,11.74-12.57v-10ZM252.18,71.28,252,71.1l.22.19L261,78.41h0ZM264.4,42.57v10L252.66,65.14l-3.48,3.73,3.49-3.73,11.74-12.57v-10ZM252.18,71.28,252,71.1l.22.19L261,78.41h0ZM190.4,43V95.65h0V43h0Zm11.95,4.11a9.53,9.53,0,0,1,1.13-1.45A7,7,0,0,0,202.35,47.11Zm-33.95-5-.3,0h.3ZM158.87,44c.59-.25,1.19-.47,1.81-.67A18.63,18.63,0,0,0,158.87,44Zm-9.46,9.21q-.19.4-.36.84c.12-.29.24-.57.37-.84s.2-.43.31-.64C149.62,52.81,149.51,53,149.41,53.24Zm-1.21,3.55a3.55,3.55,0,0,0-.09.47c0-.16.07-.32.1-.47s.11-.47.17-.7ZM137.11,42.93v8.7s0,0,0,0V42.93Zm0,17.31V81.39h0V60.24l.06-.17C137.15,60.13,137.13,60.19,137.11,60.24ZM149.8,42.16c0,.1,0,.2,0,.3a2,2,0,0,1,0-.24.13.13,0,0,1,0-.06ZM110.5,28V47.78h0V28ZM99.4,42.17l-.53,0c.41,0,.83,0,1.25,0Zm-2.72.2-.78.11L97,42.34Zm-2.7.49h0l-.41.1-.41.11-.46.13L93.6,43l1-.23ZM80.66,67.75c0,.14,0,.28.08.42s.07.28.11.41C80.78,68.31,80.72,68,80.66,67.75Zm-.54-6.14v.55c0-.35,0-.69,0-1C80.13,61.29,80.12,61.45,80.12,61.61ZM110.5,28V47.78h0V28ZM99.4,42.17l-.53,0c.41,0,.83,0,1.25,0Zm-2.72.2-.78.11L97,42.34Zm-2.7.49h0l-.41.1-.41.11-.46.13L93.6,43l1-.23ZM80.66,67.75c0,.14,0,.28.08.42s.07.28.11.41C80.78,68.31,80.72,68,80.66,67.75Zm-.54-6.14v.55c0-.35,0-.69,0-1C80.13,61.29,80.12,61.45,80.12,61.61Zm57-18.68v8.7s0,0,0,0V42.93Zm0,17.31V81.39h0V60.24l.06-.17C137.15,60.13,137.13,60.19,137.11,60.24ZM149.8,42.16c0,.1,0,.2,0,.3a2,2,0,0,1,0-.24.13.13,0,0,1,0-.06Zm18.6,0-.3,0h.3ZM158.87,44c.59-.25,1.19-.47,1.81-.67A18.63,18.63,0,0,0,158.87,44Zm-9.46,9.21q-.19.4-.36.84c.12-.29.24-.57.37-.84s.2-.43.31-.64C149.62,52.81,149.51,53,149.41,53.24Zm-1.21,3.55a3.55,3.55,0,0,0-.09.47c0-.16.07-.32.1-.47s.11-.47.17-.7ZM190.4,43V95.65h0V43h0Zm11.95,4.11a9.53,9.53,0,0,1,1.13-1.45A7,7,0,0,0,202.35,47.11Zm62-4.54v10L252.66,65.14l-3.48,3.73,3.49-3.73,11.74-12.57v-10ZM252.18,71.28,252,71.1l.22.19L261,78.41h0ZM264.4,42.57v10L252.66,65.14l-3.48,3.73,3.49-3.73,11.74-12.57v-10ZM252.18,71.28,252,71.1l.22.19L261,78.41h0ZM190.4,43V95.65h0V43h0Zm11.95,4.11a9.53,9.53,0,0,1,1.13-1.45A7,7,0,0,0,202.35,47.11Zm-33.95-5-.3,0h.3ZM158.87,44c.59-.25,1.19-.47,1.81-.67A18.63,18.63,0,0,0,158.87,44Zm-9.46,9.21q-.19.4-.36.84c.12-.29.24-.57.37-.84s.2-.43.31-.64C149.62,52.81,149.51,53,149.41,53.24Zm-1.21,3.55a3.55,3.55,0,0,0-.09.47c0-.16.07-.32.1-.47s.11-.47.17-.7ZM137.11,42.93v8.7s0,0,0,0V42.93Zm0,17.31V81.39h0V60.24l.06-.17C137.15,60.13,137.13,60.19,137.11,60.24ZM149.8,42.16c0,.1,0,.2,0,.3a2,2,0,0,1,0-.24.13.13,0,0,1,0-.06ZM110.5,28V47.78h0V28ZM99.4,42.17l-.53,0c.41,0,.83,0,1.25,0Zm-2.72.2-.78.11L97,42.34Zm-2.7.49h0l-.41.1-.41.11-.46.13L93.6,43l1-.23ZM80.66,67.75c0,.14,0,.28.08.42s.07.28.11.41C80.78,68.31,80.72,68,80.66,67.75Zm-.54-6.14v.55c0-.35,0-.69,0-1C80.13,61.29,80.12,61.45,80.12,61.61ZM110.5,28V47.78h0V28ZM99.4,42.17l-.53,0c.41,0,.83,0,1.25,0Zm-2.72.2-.78.11L97,42.34Zm-2.7.49h0l-.41.1-.41.11-.46.13L93.6,43l1-.23ZM80.66,67.75c0,.14,0,.28.08.42s.07.28.11.41C80.78,68.31,80.72,68,80.66,67.75Zm-.54-6.14v.55c0-.35,0-.69,0-1C80.13,61.29,80.12,61.45,80.12,61.61Zm57-18.68v8.7s0,0,0,0V42.93Zm0,17.31V81.39h0V60.24l.06-.17C137.15,60.13,137.13,60.19,137.11,60.24ZM149.8,42.16c0,.1,0,.2,0,.3a2,2,0,0,1,0-.24.13.13,0,0,1,0-.06Zm18.6,0-.3,0h.3ZM158.87,44c.59-.25,1.19-.47,1.81-.67A18.63,18.63,0,0,0,158.87,44Zm-9.46,9.21q-.19.4-.36.84c.12-.29.24-.57.37-.84s.2-.43.31-.64C149.62,52.81,149.51,53,149.41,53.24Zm-1.21,3.55a3.55,3.55,0,0,0-.09.47c0-.16.07-.32.1-.47s.11-.47.17-.7ZM190.4,43V95.65h0V43h0Zm11.95,4.11a9.53,9.53,0,0,1,1.13-1.45A7,7,0,0,0,202.35,47.11Zm62-4.54v10L252.66,65.14l-3.48,3.73,3.49-3.73,11.74-12.57v-10ZM252.18,71.28,252,71.1l.22.19L261,78.41h0ZM264.4,42.57v10L252.66,65.14l-3.48,3.73,3.49-3.73,11.74-12.57v-10ZM252.18,71.28,252,71.1l.22.19L261,78.41h0ZM190.4,43V95.65h0V43h0Zm11.95,4.11a9.53,9.53,0,0,1,1.13-1.45A7,7,0,0,0,202.35,47.11Zm-33.95-5-.3,0h.3ZM158.87,44c.59-.25,1.19-.47,1.81-.67A18.63,18.63,0,0,0,158.87,44Zm-9.46,9.21q-.19.4-.36.84c.12-.29.24-.57.37-.84s.2-.43.31-.64C149.62,52.81,149.51,53,149.41,53.24Zm-1.21,3.55a3.55,3.55,0,0,0-.09.47c0-.16.07-.32.1-.47s.11-.47.17-.7ZM137.11,42.93v8.7s0,0,0,0V42.93Zm0,17.31V81.39h0V60.24l.06-.17C137.15,60.13,137.13,60.19,137.11,60.24ZM149.8,42.16c0,.1,0,.2,0,.3a2,2,0,0,1,0-.24.13.13,0,0,1,0-.06ZM110.5,28V47.78h0V28ZM99.4,42.17l-.53,0c.41,0,.83,0,1.25,0Zm-2.72.2-.78.11L97,42.34Zm-2.7.49h0l-.41.1-.41.11-.46.13L93.6,43l1-.23ZM80.66,67.75c0,.14,0,.28.08.42s.07.28.11.41C80.78,68.31,80.72,68,80.66,67.75Zm-.54-6.14v.55c0-.35,0-.69,0-1C80.13,61.29,80.12,61.45,80.12,61.61ZM110.5,28V47.78h0V28ZM99.4,42.17l-.53,0c.41,0,.83,0,1.25,0Zm-2.72.2-.78.11L97,42.34Zm-2.7.49h0l-.41.1-.41.11-.46.13L93.6,43l1-.23ZM80.66,67.75c0,.14,0,.28.08.42s.07.28.11.41C80.78,68.31,80.72,68,80.66,67.75Zm-.54-6.14v.55c0-.35,0-.69,0-1C80.13,61.29,80.12,61.45,80.12,61.61Zm57-18.68v8.7s0,0,0,0V42.93Zm0,17.31V81.39h0V60.24l.06-.17C137.15,60.13,137.13,60.19,137.11,60.24ZM149.8,42.16c0,.1,0,.2,0,.3a2,2,0,0,1,0-.24.13.13,0,0,1,0-.06Zm18.6,0-.3,0h.3ZM158.87,44c.59-.25,1.19-.47,1.81-.67A18.63,18.63,0,0,0,158.87,44Zm-9.46,9.21q-.19.4-.36.84c.12-.29.24-.57.37-.84s.2-.43.31-.64C149.62,52.81,149.51,53,149.41,53.24Zm-1.21,3.55a3.55,3.55,0,0,0-.09.47c0-.16.07-.32.1-.47s.11-.47.17-.7ZM190.4,43V95.65h0V43h0Zm11.95,4.11a9.53,9.53,0,0,1,1.13-1.45A7,7,0,0,0,202.35,47.11Zm62-4.54v10L252.66,65.14l-3.48,3.73,3.49-3.73,11.74-12.57v-10ZM252.18,71.28,252,71.1l.22.19L261,78.41h0ZM264.4,42.57v10L252.66,65.14l-3.48,3.73,3.49-3.73,11.74-12.57v-10ZM252.18,71.28,252,71.1l.22.19L261,78.41h0ZM190.4,43V95.65h0V43h0Zm11.95,4.11a9.53,9.53,0,0,1,1.13-1.45A7,7,0,0,0,202.35,47.11Zm-33.95-5-.3,0h.3ZM158.87,44c.59-.25,1.19-.47,1.81-.67A18.63,18.63,0,0,0,158.87,44Zm-9.46,9.21q-.19.4-.36.84c.12-.29.24-.57.37-.84s.2-.43.31-.64C149.62,52.81,149.51,53,149.41,53.24Zm-1.21,3.55a3.55,3.55,0,0,0-.09.47c0-.16.07-.32.1-.47s.11-.47.17-.7ZM137.11,42.93v8.7s0,0,0,0V42.93Zm0,17.31V81.39h0V60.24l.06-.17C137.15,60.13,137.13,60.19,137.11,60.24ZM149.8,42.16c0,.1,0,.2,0,.3a2,2,0,0,1,0-.24.13.13,0,0,1,0-.06ZM110.5,28V47.78h0V28ZM99.4,42.17l-.53,0c.41,0,.83,0,1.25,0Zm-2.72.2-.78.11L97,42.34Zm-2.7.49h0l-.41.1-.41.11-.46.13L93.6,43l1-.23ZM80.66,67.75c0,.14,0,.28.08.42s.07.28.11.41C80.78,68.31,80.72,68,80.66,67.75Zm-.54-6.14v.55c0-.35,0-.69,0-1C80.13,61.29,80.12,61.45,80.12,61.61ZM110.5,28V47.78h0V28ZM99.4,42.17l-.53,0c.41,0,.83,0,1.25,0Zm-2.72.2-.78.11L97,42.34Zm-2.7.49h0l-.41.1-.41.11-.46.13L93.6,43l1-.23ZM80.66,67.75c0,.14,0,.28.08.42s.07.28.11.41C80.78,68.31,80.72,68,80.66,67.75Zm-.54-6.14v.55c0-.35,0-.69,0-1C80.13,61.29,80.12,61.45,80.12,61.61Zm57-18.68v8.7s0,0,0,0V42.93Zm0,17.31V81.39h0V60.24l.06-.17C137.15,60.13,137.13,60.19,137.11,60.24ZM149.8,42.16c0,.1,0,.2,0,.3a2,2,0,0,1,0-.24.13.13,0,0,1,0-.06Zm18.6,0-.3,0h.3ZM158.87,44c.59-.25,1.19-.47,1.81-.67A18.63,18.63,0,0,0,158.87,44Zm-9.46,9.21q-.19.4-.36.84c.12-.29.24-.57.37-.84s.2-.43.31-.64C149.62,52.81,149.51,53,149.41,53.24Zm-1.21,3.55a3.55,3.55,0,0,0-.09.47c0-.16.07-.32.1-.47s.11-.47.17-.7ZM190.4,43V95.65h0V43h0Zm11.95,4.11a9.53,9.53,0,0,1,1.13-1.45A7,7,0,0,0,202.35,47.11Zm62-4.54v10L252.66,65.14l-3.48,3.73,3.49-3.73,11.74-12.57v-10ZM252.18,71.28,252,71.1l.22.19L261,78.41h0ZM264.4,42.57v10L252.66,65.14l-3.48,3.73,3.49-3.73,11.74-12.57v-10ZM252.18,71.28,252,71.1l.22.19L261,78.41h0ZM190.4,43V95.65h0V43h0Zm11.95,4.11a9.53,9.53,0,0,1,1.13-1.45A7,7,0,0,0,202.35,47.11Zm-33.95-5-.3,0h.3ZM158.87,44c.59-.25,1.19-.47,1.81-.67A18.63,18.63,0,0,0,158.87,44Zm-9.46,9.21q-.19.4-.36.84c.12-.29.24-.57.37-.84s.2-.43.31-.64C149.62,52.81,149.51,53,149.41,53.24Zm-1.21,3.55a3.55,3.55,0,0,0-.09.47c0-.16.07-.32.1-.47s.11-.47.17-.7ZM137.11,42.93v8.7s0,0,0,0V42.93Zm0,17.31V81.39h0V60.24l.06-.17C137.15,60.13,137.13,60.19,137.11,60.24ZM149.8,42.16c0,.1,0,.2,0,.3a2,2,0,0,1,0-.24.13.13,0,0,1,0-.06ZM110.5,28V47.78h0V28ZM99.4,42.17l-.53,0c.41,0,.83,0,1.25,0Zm-2.72.2-.78.11L97,42.34Zm-2.7.49h0l-.41.1-.41.11-.46.13L93.6,43l1-.23ZM80.66,67.75c0,.14,0,.28.08.42s.07.28.11.41C80.78,68.31,80.72,68,80.66,67.75Zm-.54-6.14v.55c0-.35,0-.69,0-1C80.13,61.29,80.12,61.45,80.12,61.61ZM110.5,28V47.78h0V28ZM99.4,42.17l-.53,0c.41,0,.83,0,1.25,0Zm-2.72.2-.78.11L97,42.34Zm-2.7.49h0l-.41.1-.41.11-.46.13L93.6,43l1-.23ZM80.66,67.75c0,.14,0,.28.08.42s.07.28.11.41C80.78,68.31,80.72,68,80.66,67.75Zm-.54-6.14v.55c0-.35,0-.69,0-1C80.13,61.29,80.12,61.45,80.12,61.61Zm57-18.68v8.7s0,0,0,0V42.93Zm0,17.31V81.39h0V60.24l.06-.17C137.15,60.13,137.13,60.19,137.11,60.24ZM149.8,42.16c0,.1,0,.2,0,.3a2,2,0,0,1,0-.24.13.13,0,0,1,0-.06Zm18.6,0-.3,0h.3ZM158.87,44c.59-.25,1.19-.47,1.81-.67A18.63,18.63,0,0,0,158.87,44Zm-9.46,9.21q-.19.4-.36.84c.12-.29.24-.57.37-.84s.2-.43.31-.64C149.62,52.81,149.51,53,149.41,53.24Zm-1.21,3.55a3.55,3.55,0,0,0-.09.47c0-.16.07-.32.1-.47s.11-.47.17-.7ZM190.4,43V95.65h0V43h0Zm11.95,4.11a9.53,9.53,0,0,1,1.13-1.45A7,7,0,0,0,202.35,47.11Zm62-4.54v10L252.66,65.14l-3.48,3.73,3.49-3.73,11.74-12.57v-10ZM252.18,71.28,252,71.1l.22.19L261,78.41h0ZM264.4,42.57v10L252.66,65.14l-3.48,3.73,3.49-3.73,11.74-12.57v-10ZM252.18,71.28,252,71.1l.22.19L261,78.41h0ZM190.4,43V95.65h0V43h0Zm11.95,4.11a9.53,9.53,0,0,1,1.13-1.45A7,7,0,0,0,202.35,47.11Zm-33.95-5-.3,0h.3ZM158.87,44c.59-.25,1.19-.47,1.81-.67A18.63,18.63,0,0,0,158.87,44Zm-9.46,9.21q-.19.4-.36.84c.12-.29.24-.57.37-.84s.2-.43.31-.64C149.62,52.81,149.51,53,149.41,53.24Zm-1.21,3.55a3.55,3.55,0,0,0-.09.47c0-.16.07-.32.1-.47s.11-.47.17-.7ZM137.11,42.93v8.7s0,0,0,0V42.93Zm0,17.31V81.39h0V60.24l.06-.17C137.15,60.13,137.13,60.19,137.11,60.24ZM149.8,42.16c0,.1,0,.2,0,.3a2,2,0,0,1,0-.24.13.13,0,0,1,0-.06ZM110.5,28V47.78h0V28ZM99.4,42.17l-.53,0c.41,0,.83,0,1.25,0Zm-2.72.2-.78.11L97,42.34Zm-2.7.49h0l-.41.1-.41.11-.46.13L93.6,43l1-.23ZM80.66,67.75c0,.14,0,.28.08.42s.07.28.11.41C80.78,68.31,80.72,68,80.66,67.75Zm-.54-6.14v.55c0-.35,0-.69,0-1C80.13,61.29,80.12,61.45,80.12,61.61Z"/><path d="M261,74.1a6.21,6.21,0,0,1-1.84-.73,6,6,0,0,0,1.84.74,1.17,1.17,0,0,0,.26,0ZM141.32,54.31l-.19.15.23-.17Zm-1.56-7.65-.13.16.14-.16Zm-1.34,10.85-.15.27a2.75,2.75,0,0,1,.17-.29Zm.09-.15a.83.83,0,0,0-.07.13l.18-.29Zm-28,19.19a9.13,9.13,0,0,1-.87,1.42,9.17,9.17,0,0,0,.88-1.42ZM93.53,43h.07l.34-.09Z"/><path class="cls-5" d="M267.68,70.28a4.83,4.83,0,0,1-1.31,2.37,5.37,5.37,0,0,1-.92.73,5.16,5.16,0,0,1-.7.37,5.76,5.76,0,0,1-1.55.44,5.26,5.26,0,0,1-.89.07,4.3,4.3,0,0,1-.62,0,2.26,2.26,0,0,1-.43-.07L261,74.1a6.21,6.21,0,0,1-1.84-.73,7.22,7.22,0,0,1-.77-.56,5.27,5.27,0,0,1-1.92-4,4.42,4.42,0,0,1,.12-1,.54.54,0,0,1,0-.1c.76-2.88,8.28-11,8.28-11l.48,1.59C266.3,61.4,268.16,68.15,267.68,70.28Z"/><path class="cls-5" d="M261.26,74.15a1.17,1.17,0,0,1-.26,0,6,6,0,0,1-1.84-.74,6.21,6.21,0,0,0,1.84.73Z"/><polygon points="249.18 68.87 247.1 71.1 251.95 71.1 252.17 71.29 261.04 78.41 258.89 81.1 232.79 81.1 232.79 71.1 236.59 67.22 236.59 67.21 238.87 64.87 241.2 62.47 250.87 52.57 232.79 52.57 232.79 42.57 264.4 42.57 264.4 52.57 252.66 65.14 249.18 68.87"/><rect class="cls-6" x="232.79" y="81.1" width="26.1" height="0.01"/><path class="cls-6" d="M226.6,77.39l-.21.19.21-.18c.14-.13.28-.26.41-.4Zm-1.41,1.18.23-.18-.42.31Zm-.63.44.32-.23c-.22.16-.44.31-.67.45Zm-12.64,3.22h.41c.72,0,1.42,0,2.11-.08-.69,0-1.4.07-2.11.07ZM190.41,95.66h0Zm11.53-47.8h0L197.09,44Z"/><path d="M232.22,59.56c0-.4-.08-.79-.13-1.18s-.12-.8-.19-1.18-.1-.53-.16-.78-.11-.51-.18-.75-.13-.5-.2-.74-.15-.48-.23-.71-.22-.61-.34-.9l-.27-.64a19.81,19.81,0,0,0-.91-1.78c-.16-.28-.33-.56-.51-.82s-.36-.53-.54-.78-.26-.34-.39-.5-.36-.45-.55-.66-.39-.44-.6-.65l-.42-.4c-.22-.21-.45-.41-.68-.6s-.71-.55-1.08-.81-.75-.51-1.14-.73a19.11,19.11,0,0,0-3.41-1.52c-.37-.12-.75-.23-1.13-.33l-.63-.16-1.16-.25c-.44-.08-.88-.15-1.33-.21a27.87,27.87,0,0,0-3.71-.24,14,14,0,0,0-2.88.31,10.78,10.78,0,0,0-1.12.28c-.24.07-.49.15-.73.24l-.36.14c-.24.09-.48.19-.71.3l-.36.17-.68.38-.66.43-.24.18c-.23.18-.46.37-.68.57l-.43.42a9.53,9.53,0,0,0-1.13,1.45c-.14.23-.27.48-.41.74h0L197.09,44l-1.3-1h-5.38V95.65h11.53v-19l.24.36c.16.23.31.46.47.68s.4.53.6.78.41.48.62.7l.26.27A9.94,9.94,0,0,0,206,80.89a7.28,7.28,0,0,0,1.67.74l.49.15c.25.06.51.12.79.17l.38.07c.22,0,.45.07.69.09l.74.07c.25,0,.51,0,.77,0a2.77,2.77,0,0,0,.41,0h.41c.71,0,1.42,0,2.11-.07.52,0,1-.09,1.53-.15a23.84,23.84,0,0,0,4.32-1,19.2,19.2,0,0,0,2.19-.87q.39-.18.78-.39l.19-.11.24-.14h0l.45-.27.06,0c.23-.14.45-.29.67-.45l.12-.08.42-.31.24-.18.26-.22.47-.41.21-.19L227,77l.4-.42a5.34,5.34,0,0,0,.39-.44l.37-.45.39-.5c.18-.25.36-.52.54-.78s.35-.55.51-.83.43-.77.62-1.17.39-.82.56-1.24c.09-.23.18-.45.26-.69s.16-.46.23-.7.16-.51.23-.78l0-.14a.14.14,0,0,0,0-.06c0-.16.08-.32.11-.48l.06-.22c0-.06,0-.12,0-.18s0-.26.08-.39c.1-.52.19-1.06.26-1.61l.09-.83c0-.23,0-.46.05-.69.05-.7.08-1.42.08-2.16C232.33,61.31,232.29,60.42,232.22,59.56Zm-14.81,9.06a8.92,8.92,0,0,1-2.61,2.58,7.23,7.23,0,0,1-4,1,10.4,10.4,0,0,1-5-1,6.94,6.94,0,0,1-2.62-2.42,7.83,7.83,0,0,1-1-3.12,27,27,0,0,1-.2-3.08c0-.92.06-2,.16-3.18a8.82,8.82,0,0,1,1-3.43,7,7,0,0,1,2.66-2.73,9.57,9.57,0,0,1,5-1.12,7.4,7.4,0,0,1,4,1,8.83,8.83,0,0,1,2.61,2.59,10.63,10.63,0,0,1,1.43,3.26,13.87,13.87,0,0,1,.41,3.11,14.19,14.19,0,0,1-.41,3.15A10.49,10.49,0,0,1,217.41,68.62Z"/><path class="cls-6" d="M189.17,61.37c0-.27,0-.53,0-.79,0,.52,0,1,0,1.58s0,1.06,0,1.58c0-.26,0-.52,0-.78s0-.53,0-.8S189.17,61.63,189.17,61.37Z"/><path d="M189.13,60.58c0-.51-.07-1-.13-1.5s-.14-1.1-.24-1.62a18.64,18.64,0,0,0-.47-1.89c0-.12-.07-.24-.11-.36a13.88,13.88,0,0,0-.56-1.49c0-.12-.1-.24-.15-.36l-.06-.12c-.16-.34-.32-.67-.5-1a2.15,2.15,0,0,0-.14-.26l-.33-.59c-.07-.11-.14-.23-.22-.34s-.29-.45-.44-.67-.45-.64-.68-.93a16.37,16.37,0,0,0-1.51-1.69c-.27-.26-.55-.51-.83-.76l-.74-.6-.76-.55c-.2-.15-.42-.29-.63-.42l-.31-.19-.51-.3a19.65,19.65,0,0,0-3.2-1.44l-.47-.15c-.53-.17-1.06-.32-1.6-.45l-.81-.19-.82-.16-.17,0c-.37-.07-.74-.12-1.12-.17-.53-.06-1.06-.11-1.6-.15l-.8,0H168c-.27,0-.55,0-.82,0s-.59,0-.88,0l-.69.06c-.55.06-1.09.14-1.63.23h0l-.42.08-.73.15c-.49.11-1,.24-1.45.37l-.71.22c-.62.2-1.22.42-1.81.67l-.44.2-.43.2-.84.43-.81.48h0l-.79.52c-.25.18-.51.36-.75.55l-.74.6-.23.21h0l-.22.21c-.27.24-.53.5-.78.76s-.49.54-.73.82a18.45,18.45,0,0,0-1.33,1.79l-.36.58c-.24.4-.46.8-.67,1.22-.11.21-.21.43-.31.64s-.25.55-.37.84-.33.86-.47,1.32c-.07.22-.14.46-.2.69s-.12.47-.17.7-.07.31-.1.47-.07.31-.09.47c-.06.32-.11.64-.16,1-.09.66-.15,1.34-.19,2,0,.46,0,.94,0,1.42a24.3,24.3,0,0,0,.56,5.36q.11.48.24.93a1.71,1.71,0,0,0,.09.3c0,.12.07.24.11.37a15.39,15.39,0,0,0,.78,2,18.15,18.15,0,0,0,1,1.81c.17.29.34.57.52.84l.28.41c.19.26.38.52.58.77h0c.2.25.4.49.62.73s.43.47.64.7.69.66,1.05,1,.73.6,1.11.88l.77.53A19.87,19.87,0,0,0,160.68,81a25.91,25.91,0,0,0,15.46,0c.47-.16.93-.32,1.37-.5l.88-.38a13.71,13.71,0,0,0,1.27-.64q.42-.22.81-.48h0a18.52,18.52,0,0,0,1.73-1.21l.27-.22.28-.23c.28-.24.56-.49.83-.76A17.79,17.79,0,0,0,185,75c.26-.34.52-.69.77-1s.45-.67.66-1,.27-.47.41-.71.31-.6.46-.91l.1-.22q.22-.47.42-1l.18-.5c.12-.33.23-.68.33-1,.15-.53.28-1.07.4-1.63s.2-1.13.26-1.72.1-1,.13-1.51,0-1,0-1.58S189.16,61.1,189.13,60.58ZM168.41,72.23a10.35,10.35,0,0,1-5.08-1,7.27,7.27,0,0,1-2.76-2.58,8.3,8.3,0,0,1-1.16-3.26,22.82,22.82,0,0,1-.23-3.12,23.57,23.57,0,0,1,.23-3.15,8.31,8.31,0,0,1,1.16-3.3,7.22,7.22,0,0,1,2.76-2.59,12.9,12.9,0,0,1,10.15,0,7.28,7.28,0,0,1,2.78,2.59,8.63,8.63,0,0,1,1.16,3.3,27.26,27.26,0,0,1,.22,3.15,26.35,26.35,0,0,1-.22,3.12,8.62,8.62,0,0,1-1.16,3.26,7.34,7.34,0,0,1-2.78,2.58A10.25,10.25,0,0,1,168.41,72.23Z"/><path d="M149.8,42.16c0,.1,0,.2,0,.3-.13.8-.26,1.51-.38,2.13,0,.21-.08.43-.11.63-.08.48-.16,1-.23,1.44-.1.7-.22,1.47-.35,2.31,0,.05,0,.1,0,.16s0,.32-.07.49c-.1.72-.21,1.57-.33,2.54a12.57,12.57,0,0,0-3.63.48,9.75,9.75,0,0,0-1.11.41,12.45,12.45,0,0,0-2.17,1.24l0,0-.19.15a7.09,7.09,0,0,0-.82.71,11.26,11.26,0,0,0-.95,1c-.13.16-.26.32-.38.49a.83.83,0,0,0-.08.12,3.6,3.6,0,0,0-.28.4l-.11.16a.83.83,0,0,0-.07.13l0,0-.15.27c-.12.22-.24.43-.34.63a12.77,12.77,0,0,0-.75,1.66c0,.06-.05.12-.07.17V81.39H125.58V42.93h11.53v8.7s0,0,0,0c.06-.2.13-.39.2-.57s.12-.33.19-.48a1.67,1.67,0,0,1,.08-.2c0-.11.09-.23.14-.34s.09-.2.14-.31.23-.48.35-.71a12.86,12.86,0,0,1,1.41-2.17l.14-.16h0c.08-.09.15-.18.23-.26l.24-.27a10.8,10.8,0,0,1,2-1.68A13.65,13.65,0,0,1,149.8,42.16Z"/><path class="cls-6" d="M138.42,57.51l0,0a2.75,2.75,0,0,0-.17.29Z"/><path class="cls-6" d="M138.51,57.36l.11-.16-.18.29A.83.83,0,0,1,138.51,57.36Z"/><path class="cls-6" d="M139.76,46.66h0l-.14.16Z"/><path class="cls-6" d="M141.36,54.29l-.23.17.19-.15Z"/><path class="cls-6" d="M110.5,76.55a9.13,9.13,0,0,1-.87,1.42,9.17,9.17,0,0,0,.88-1.42Z"/><path d="M110.51,28V47.78h0l-.22-.36h0c-.15-.23-.31-.46-.47-.68a13.74,13.74,0,0,0-1-1.22,11.43,11.43,0,0,0-1.28-1.24c-.23-.19-.46-.36-.69-.52l-.38-.25a7.32,7.32,0,0,0-1.57-.71l-.24-.08-.22-.06a13.7,13.7,0,0,0-1.45-.3c-.35-.06-.71-.1-1.08-.13s-.57,0-.87,0l-.92,0c-.42,0-.84,0-1.25,0s-.61,0-.91.06-.46,0-.69.06l-.3,0-1.07.14c-.45.07-.9.16-1.34.25h0l-1,.23-.94.25h0l-.46.15a18.42,18.42,0,0,0-2.62,1.07c-.41.21-.81.43-1.2.67s-.76.49-1.13.76l-.36.27c-.36.28-.7.58-1,.88s-.86.85-1.26,1.31h0c-.19.23-.39.47-.57.71a18.52,18.52,0,0,0-2.36,4.2c-.19.47-.37,1-.53,1.46s-.32,1.15-.45,1.76c-.05.22-.1.45-.13.68a1.84,1.84,0,0,0,0,.25c0,.27-.09.54-.13.82s-.07.62-.11.94-.06.65-.08,1,0,.66,0,1,0,.68,0,1a27.05,27.05,0,0,0,.54,5.59c.06.28.12.56.19.83l.06.24c0,.19.1.38.16.57a16.78,16.78,0,0,0,.59,1.69c.26.63.53,1.23.84,1.81.15.29.31.56.47.84A17.29,17.29,0,0,0,84.59,76c.3.35.61.68.93,1l.33.31A17.07,17.07,0,0,0,92.19,81a26.18,26.18,0,0,0,7.93,1.18,14,14,0,0,0,2.88-.31,12.89,12.89,0,0,0,2.93-1,9,9,0,0,0,1.36-.75l.64-.46.61-.52A8.8,8.8,0,0,0,109.63,78a9.13,9.13,0,0,0,.87-1.42h0l6.15,4.84H122V28ZM106.7,71.13a9.61,9.61,0,0,1-5,1.11,7.17,7.17,0,0,1-4-1,8.65,8.65,0,0,1-2.61-2.57,10.07,10.07,0,0,1-1.42-3.27,12.92,12.92,0,0,1-.43-3.12,13.34,13.34,0,0,1,.43-3.15,9.86,9.86,0,0,1,1.42-3.3,8.49,8.49,0,0,1,2.61-2.59,7.34,7.34,0,0,1,4-1,10.1,10.1,0,0,1,5,1,6.86,6.86,0,0,1,2.62,2.42,7.84,7.84,0,0,1,1,3.11,27.29,27.29,0,0,1,.2,3.08c0,.93-.06,2-.16,3.19a8.72,8.72,0,0,1-1,3.42A7.15,7.15,0,0,1,106.7,71.13Z"/><line class="cls-7" x1="258.89" y1="81.1" x2="258.18" y2="81.99"/><line class="cls-7" x1="261.68" y1="77.61" x2="261.05" y2="78.4"/></svg>